<svg width="1184" height="182" viewBox="0 0 1184 182" fill="none" xmlns="http://www.w3.org/2000/svg">
<path d="M191.984 67.8594C194.154 67.8594 196.195 68.2513 198.109 69.0352C200.042 69.819 201.737 71.0221 203.195 72.6445C204.672 74.2669 205.82 76.3359 206.641 78.8516C207.479 81.349 207.898 84.3294 207.898 87.793V87.8477C207.898 92.1862 207.251 95.9141 205.957 99.0312C204.681 102.148 202.84 104.536 200.434 106.195C198.046 107.854 195.174 108.684 191.82 108.684C189.396 108.684 187.199 108.246 185.23 107.371C183.28 106.496 181.658 105.302 180.363 103.789C179.087 102.258 178.24 100.499 177.82 98.5117L177.766 98.2109H184.738L184.848 98.457C185.212 99.3503 185.714 100.134 186.352 100.809C186.99 101.483 187.773 102.012 188.703 102.395C189.633 102.759 190.681 102.941 191.848 102.941C193.98 102.941 195.703 102.331 197.016 101.109C198.346 99.8698 199.34 98.2292 199.996 96.1875C200.671 94.1276 201.044 91.8581 201.117 89.3789C201.135 89.1419 201.145 88.9049 201.145 88.668C201.163 88.431 201.172 88.194 201.172 87.957L199.941 81.4219C199.941 79.9635 199.595 78.651 198.902 77.4844C198.21 76.2995 197.262 75.3607 196.059 74.668C194.874 73.9753 193.543 73.6289 192.066 73.6289C190.608 73.6289 189.277 73.9753 188.074 74.668C186.871 75.3424 185.914 76.263 185.203 77.4297C184.51 78.5781 184.164 79.8633 184.164 81.2852V81.3398C184.164 82.8346 184.501 84.1654 185.176 85.332C185.85 86.4805 186.78 87.3828 187.965 88.0391C189.15 88.6953 190.49 89.0234 191.984 89.0234C193.497 89.0234 194.855 88.7044 196.059 88.0664C197.262 87.4102 198.21 86.5169 198.902 85.3867C199.595 84.2383 199.941 82.9258 199.941 81.4492V81.4219H201.609V88.1211H201.035C200.507 89.3242 199.732 90.3997 198.711 91.3477C197.69 92.2956 196.46 93.0521 195.02 93.6172C193.579 94.1823 191.966 94.4648 190.18 94.4648C187.646 94.4648 185.404 93.9089 183.453 92.7969C181.503 91.6849 179.971 90.1536 178.859 88.2031C177.766 86.2526 177.219 84.0469 177.219 81.5859V81.5312C177.219 78.8698 177.857 76.5182 179.133 74.4766C180.427 72.4167 182.177 70.8034 184.383 69.6367C186.607 68.4518 189.141 67.8594 191.984 67.8594ZM216.73 102.258C215.618 102.258 214.68 101.875 213.914 101.109C213.148 100.344 212.766 99.4141 212.766 98.3203C212.766 97.2083 213.148 96.2695 213.914 95.5039C214.68 94.7383 215.618 94.3555 216.73 94.3555C217.824 94.3555 218.754 94.7383 219.52 95.5039C220.285 96.2695 220.668 97.2083 220.668 98.3203C220.668 99.4141 220.285 100.344 219.52 101.109C218.754 101.875 217.824 102.258 216.73 102.258ZM216.73 82.1602C215.618 82.1602 214.68 81.7865 213.914 81.0391C213.148 80.2734 212.766 79.3346 212.766 78.2227C212.766 77.1107 213.148 76.181 213.914 75.4336C214.68 74.668 215.618 74.2852 216.73 74.2852C217.824 74.2852 218.754 74.668 219.52 75.4336C220.285 76.181 220.668 77.1107 220.668 78.2227C220.668 79.3346 220.285 80.2734 219.52 81.0391C218.754 81.7865 217.824 82.1602 216.73 82.1602ZM244.922 108V100.398H225.234V94.4102C226.328 92.6966 227.422 90.974 228.516 89.2422C229.609 87.5104 230.703 85.7878 231.797 84.0742C232.891 82.3424 233.975 80.6198 235.051 78.9062C236.145 77.1745 237.238 75.4518 238.332 73.7383C239.426 72.0065 240.52 70.2747 241.613 68.543H251.648V94.6562H256.98V100.398H251.648V108H244.922ZM231.578 94.793H245.031V73.875H244.867C243.974 75.2604 243.081 76.6458 242.188 78.0312C241.312 79.3984 240.428 80.7747 239.535 82.1602C238.66 83.5456 237.776 84.931 236.883 86.3164C235.99 87.7018 235.096 89.0872 234.203 90.4727C233.328 91.8398 232.453 93.2161 231.578 94.6016V94.793ZM271.309 108V75.2422H271.145L260.945 82.2422V75.7891L271.254 68.543H278.227V108H271.309Z" fill="black"/>
<path fill-rule="evenodd" clip-rule="evenodd" d="M909.906 71.6562C909.906 69.637 908.413 68 906.572 68H903.239C901.398 68 899.906 69.637 899.906 71.6562V103.344C899.906 105.363 901.398 107 903.239 107H906.572C908.413 107 909.906 105.363 909.906 103.344V71.6562ZM886.674 75.8H890.007C891.848 75.8 893.341 77.4762 893.341 79.544V103.256C893.341 105.324 891.848 107 890.007 107H886.674C884.833 107 883.341 105.324 883.341 103.256V79.544C883.341 77.4762 884.833 75.8 886.674 75.8ZM873.137 84.25H869.804C867.963 84.25 866.471 85.9476 866.471 88.0416V103.208C866.471 105.302 867.963 107 869.804 107H873.137C874.978 107 876.471 105.302 876.471 103.208V88.0416C876.471 85.9476 874.978 84.25 873.137 84.25ZM856.572 92.05H853.239C851.398 92.05 849.906 93.7233 849.906 95.7875V103.263C849.906 105.327 851.398 107 853.239 107H856.572C858.413 107 859.906 105.327 859.906 103.263V95.7875C859.906 93.7233 858.413 92.05 856.572 92.05Z" fill="black"/>
<path fill-rule="evenodd" clip-rule="evenodd" d="M955.907 75.802C963.742 75.8023 971.278 78.7193 976.956 83.95C977.383 84.3538 978.067 84.3487 978.488 83.9385L982.575 79.9416C982.789 79.7336 982.908 79.4518 982.906 79.1586C982.904 78.8654 982.782 78.585 982.566 78.3794C967.662 64.5402 944.15 64.5402 929.246 78.3794C929.03 78.5848 928.908 78.8652 928.906 79.1584C928.904 79.4516 929.022 79.7334 929.236 79.9416L933.324 83.9385C933.745 84.3493 934.429 84.3544 934.856 83.95C940.535 78.7189 948.072 75.8019 955.907 75.802ZM955.897 89.1526C960.173 89.1523 964.296 90.7712 967.465 93.6946C967.894 94.1095 968.569 94.1005 968.987 93.6744L973.042 89.5008C973.256 89.2819 973.374 88.9849 973.371 88.6763C973.368 88.3677 973.244 88.0732 973.026 87.8588C963.374 78.7137 948.427 78.7137 938.776 87.8588C938.558 88.0732 938.433 88.3679 938.43 88.6765C938.427 88.9852 938.546 89.2822 938.76 89.5008L942.814 93.6744C943.232 94.1005 943.908 94.1095 944.336 93.6946C947.504 90.7731 951.624 89.1544 955.897 89.1526ZM963.849 97.9899C963.855 98.3231 963.738 98.6444 963.526 98.8779L956.669 106.643C956.468 106.872 956.194 107 955.908 107C955.623 107 955.349 106.872 955.148 106.643L948.289 98.8779C948.078 98.6443 947.961 98.3229 947.967 97.9896C947.974 97.6563 948.102 97.3407 948.323 97.1173C952.702 92.9609 959.115 92.9609 963.494 97.1173C963.715 97.3409 963.843 97.6566 963.849 97.9899Z" fill="black"/>
<rect opacity="0.35" x="1002.91" y="68" width="76.8462" height="39" rx="3.3" stroke="black" stroke-width="2"/>
<path opacity="0.4" d="M1083.91 82.0789V94.9323C1086.44 93.8437 1088.09 91.3113 1088.09 88.5056C1088.09 85.6999 1086.44 83.1675 1083.91 82.0789" fill="black"/>
<rect x="1008.21" y="73.3077" width="66.2308" height="28.3846" rx="2.5" fill="black"/>
</svg>
